<?xml version="1.0" standalone="no"?><!DOCTYPE svg PUBLIC "-//W3C//DTD SVG 1.1//EN" "http://www.w3.org/Graphics/SVG/1.1/DTD/svg11.dtd"><svg t="1768745223176" class="icon" viewBox="0 0 1024 1024" version="1.1" xmlns="http://www.w3.org/2000/svg" p-id="5861" xmlns:xlink="http://www.w3.org/1999/xlink" width="200" height="200"><path d="M501.84192 107.64288a36.864 36.864 0 0 1 20.64384 0l331.61216 96.8704a36.864 36.864 0 0 1 26.54208 35.38944v198.656c0 224.6656-143.7696 424.1408-356.92544 495.16544a36.864 36.864 0 0 1-23.3472 0A521.99424 521.99424 0 0 1 143.36 438.4768V239.86176a36.864 36.864 0 0 1 26.54208-35.38944l331.93984-96.8704zM217.088 267.4688v170.92608c0 188.86656 118.29248 357.00736 294.95296 421.2736A448.18432 448.18432 0 0 0 806.912 438.55872V267.4688L512.16384 181.4528 217.088 267.50976z m479.232 204.8h-368.64v-73.728h368.64v73.728z m0 147.456h-368.64v-73.728h368.64v73.728z" fill="#3C404B" p-id="5862"></path></svg>