<?xml version="1.0" standalone="no"?><!DOCTYPE svg PUBLIC "-//W3C//DTD SVG 1.1//EN" "http://www.w3.org/Graphics/SVG/1.1/DTD/svg11.dtd"><svg t="1764166923084" class="icon" viewBox="0 0 1024 1024" version="1.1" xmlns="http://www.w3.org/2000/svg" p-id="3517" xmlns:xlink="http://www.w3.org/1999/xlink" width="200" height="200"><path d="M531.1488 114.944l318.464 128.3584a51.2 51.2 0 0 1 0 94.976l-318.464 128.4096a51.2 51.2 0 0 1-38.2976 0l-318.464-128.4096a51.2 51.2 0 0 1 0-94.976l318.464-128.3584a51.2 51.2 0 0 1 38.2976 0zM560.128 515.6352l237.4144-105.3696a51.2 51.2 0 0 1 71.9872 46.7968v259.84a51.2 51.2 0 0 1-26.2144 44.6976l-237.4144 132.7104a51.2 51.2 0 0 1-76.1856-44.6976v-287.1808a51.2 51.2 0 0 1 30.464-46.7968zM447.744 515.6352L210.432 410.2656a51.2 51.2 0 0 0-71.9872 46.7968v259.84a51.2 51.2 0 0 0 26.2144 44.6976l237.4144 132.7104a51.2 51.2 0 0 0 76.1344-44.6976v-287.1808a51.2 51.2 0 0 0-30.4128-46.7968z" fill="#2c2c2c" p-id="3518"></path></svg>