<?xml version="1.0" standalone="no"?><!DOCTYPE svg PUBLIC "-//W3C//DTD SVG 1.1//EN" "http://www.w3.org/Graphics/SVG/1.1/DTD/svg11.dtd"><svg t="1764168690658" class="icon" viewBox="0 0 1024 1024" version="1.1" xmlns="http://www.w3.org/2000/svg" p-id="6541" xmlns:xlink="http://www.w3.org/1999/xlink" width="200" height="200"><path d="M731.809 184v-72h104.146C853.653 112 868 126.327 868 144v784c0 17.673-14.347 32-32.045 32h-647.91C170.347 960 156 945.673 156 928V144c0-17.673 14.347-32 32.045-32h111.156v72h-71.1v704H795.9V184h-64.09z m-168.237 0h-96.135v-72h96.135v72zM363.28 64h40.079a8 8 0 0 1 8 8v152a8 8 0 0 1-8 8h-40.08a8 8 0 0 1-8-8V72a8 8 0 0 1 8-8z m264.371 0h40.079a8 8 0 0 1 8 8v152a8 8 0 0 1-8 8h-40.079a8 8 0 0 1-8-8V72a8 8 0 0 1 8-8zM299.19 344h432.63a8 8 0 0 1 8 8v40a8 8 0 0 1-8 8H299.19a8 8 0 0 1-8-8v-40a8 8 0 0 1 8-8z m0 112h432.63a8 8 0 0 1 8 8v40a8 8 0 0 1-8 8H299.19a8 8 0 0 1-8-8v-40a8 8 0 0 1 8-8z m0 112h432.63a8 8 0 0 1 8 8v40a8 8 0 0 1-8 8H299.19a8 8 0 0 1-8-8v-40a8 8 0 0 1 8-8z m0 112h432.63a8 8 0 0 1 8 8v40a8 8 0 0 1-8 8H299.19a8 8 0 0 1-8-8v-40a8 8 0 0 1 8-8z" fill="#2c2c2c" p-id="6542"></path></svg>