<?xml version="1.0" standalone="no"?><!DOCTYPE svg PUBLIC "-//W3C//DTD SVG 1.1//EN" "http://www.w3.org/Graphics/SVG/1.1/DTD/svg11.dtd"><svg t="1768745361861" class="icon" viewBox="0 0 1024 1024" version="1.1" xmlns="http://www.w3.org/2000/svg" p-id="9008" xmlns:xlink="http://www.w3.org/1999/xlink" width="200" height="200"><path d="M963.395918 371.983673a50.155102 50.155102 0 0 1-50.155102-50.155102V146.285714c0-22.528-2.612245-25.077551-25.077551-25.077551h-175.542857a50.155102 50.155102 0 1 1 0-100.310204H888.163265c77.322449 0 125.387755 48.065306 125.387755 125.387755v175.542857a50.155102 50.155102 0 0 1-50.155102 50.155102zM110.759184 321.828571V146.285714c0-22.528 2.612245-25.077551 25.077551-25.077551h175.542857a50.155102 50.155102 0 1 0 0-100.310204H135.836735C58.514286 20.897959 10.44898 68.963265 10.44898 146.285714v175.542857a50.155102 50.155102 0 1 0 100.310204 0z m250.77551 652.016327a50.155102 50.155102 0 0 0-50.155102-50.155102H135.836735c-22.465306 0-25.077551-2.549551-25.077551-25.077551v-175.542857a50.155102 50.155102 0 1 0-100.310204 0V898.612245c0 77.322449 48.065306 125.387755 125.387755 125.387755h175.542857a50.155102 50.155102 0 0 0 50.155102-50.155102zM1013.55102 898.612245v-175.542857a50.155102 50.155102 0 1 0-100.310204 0V898.612245c0 22.528-2.612245 25.077551-25.077551 25.077551h-175.542857a50.155102 50.155102 0 1 0 0 100.310204H888.163265c77.322449 0 125.387755-48.065306 125.387755-125.387755z" fill="#2c2c2c" p-id="9009"></path><path d="M758.512327 295.350857c-38.514939-52.913633-119.473633 5.12-81.397551 58.639674 23.217633 32.245551 35.526531 70.802286 35.52653 111.469714v209.063184c0 51.053714-7.941224 85.159184-25.788082 110.633795-23.719184 31.764898 1.94351 80.039184 41.022694 78.889796 77.635918-9.069714 84.427755-146.808163 85.012898-189.544489-4.116898-109.170939 22.569796-288.935184-54.376489-379.172572zM525.249306 272.718367a50.259592 50.259592 0 0 0 55.797551-43.781224c5.433469-43.781224-38.891102-61.690776-75.922286-57.573878-162.147265 0-294.034286 131.907918-294.034285 294.055184v154.582204c0.271673 65.452408 99.996735 65.703184 100.310204 0v-154.582204c0-113.538612 100.038531-206.471837 213.848816-192.679184z" fill="#2c2c2c" p-id="9010"></path><path d="M648.923429 444.102531c-43.028898-161.290449-280.764082-132.054204-282.624 35.819102 0.313469 5.767837-0.250776 81.251265 0 89.338775v50.740245c0 17.408-8.777143 47.396571-21.775674 64.40751a50.092408 50.092408 0 0 0 9.278694 70.321633c76.089469 49.04751 114.416327-89.485061 112.807184-134.729143v-140.07902c-0.501551-47.145796 65.703184-59.078531 83.717224-16.739266 6.561959 9.529469 2.194286 93.936327 3.406367 106.078041v78.931592c0 57.469388-8.171102 102.817959-48.190693 137.090612a50.134204 50.134204 0 0 0-5.370776 70.697796 50.113306 50.113306 0 0 0 70.718694 5.43347c73.728-63.258122 83.173878-147.205224 83.173878-213.263674-2.633143-49.862531 5.955918-160.057469-5.140898-204.047673z" fill="#2c2c2c" p-id="9011"></path></svg>