<?xml version="1.0" standalone="no"?><!DOCTYPE svg PUBLIC "-//W3C//DTD SVG 1.1//EN" "http://www.w3.org/Graphics/SVG/1.1/DTD/svg11.dtd"><svg t="1768745893537" class="icon" viewBox="0 0 1024 1024" version="1.1" xmlns="http://www.w3.org/2000/svg" p-id="11084" xmlns:xlink="http://www.w3.org/1999/xlink" width="200" height="200"><path d="M829.234 954.454H193.087c-35.135 0-63.616-26.587-63.616-59.39V449.76c0-32.77 28.481-59.358 63.616-59.358h636.147c35.13 0 63.616 26.587 63.616 59.358v445.303c0 32.804-28.486 59.394-63.612 59.391h-0.004zM511.158 538.845c-52.714 0-95.42 39.855-95.42 89.055 0 32.866 19.322 61.289 47.712 76.694v84.737c0 25.592 21.367 46.375 47.713 46.375 26.337 0 47.713-20.783 47.713-46.375v-84.737c28.388-15.405 47.707-43.828 47.707-76.694 0-49.195-42.706-89.05-95.42-89.05l-0.005-0.005z m0-385.945c-105.392 0-190.845 79.74-190.845 178.112h-95.418c0-147.544 128.158-267.165 286.263-267.165s286.268 119.62 286.268 267.165h-95.42c0-98.373-85.453-178.112-190.848-178.112z m0 0" p-id="11085" fill="#2c2c2c"></path></svg>