<?xml version="1.0" standalone="no"?><!DOCTYPE svg PUBLIC "-//W3C//DTD SVG 1.1//EN" "http://www.w3.org/Graphics/SVG/1.1/DTD/svg11.dtd"><svg t="1768745793758" class="icon" viewBox="0 0 1024 1024" version="1.1" xmlns="http://www.w3.org/2000/svg" p-id="10076" xmlns:xlink="http://www.w3.org/1999/xlink" width="200" height="200"><path d="M910.448316 140.615575l0 455.302697c0 27.316136-6.67298 54.452169-19.920702 81.486896-13.265118 27.01426-30.673603 53.205782-52.220339 78.612429-21.487384 25.406646-46.109154 49.406247-73.707722 72.079642-27.637454 22.673395-55.616692 42.87346-84.039022 60.603263-28.440749 17.749246-56.08025 32.521694-82.893942 44.221154-26.794249 11.738345-50.290383 19.798928-70.511937 24.159236l-9.547447 1.629103-8.804527-1.629103c-20.702508-4.361331-44.762483-12.421914-72.119551-24.159236-27.376511-11.69946-55.797817-26.471908-85.304851-44.221154-29.467125-17.72878-58.411341-37.928844-86.833671-60.603263-28.421306-22.672372-53.788044-46.671972-76.119655-72.079642-22.331611-25.406646-40.401152-51.598168-54.17076-78.612429-13.749142-27.034726-20.702508-54.17076-20.702508-81.486896L113.551684 140.615575l32.682353-4.925173L512.843716 65.290005l373.764636 70.40142L910.448316 140.615575 910.448316 140.615575 910.448316 140.615575zM512.904091 131.159202l-4.420683-0.904603-314.611397 54.963823 0 287.304472 319.03208 0L512.904091 131.159202 512.904091 131.159202 512.904091 131.159202zM830.146409 472.522893 512.904091 472.522893l0 408.900877c20.422122-4.804423 42.632983-12.201903 66.592674-22.050202 23.940249-9.889231 47.617507-21.588691 70.954005-35.074843 23.336498-13.547551 45.889143-28.54308 67.475787-45.045939 21.60711-16.522302 40.74396-34.251082 57.426921-53.16485s29.92966-38.572504 39.898709-58.993602c9.909697-20.422122 14.894222-41.12463 14.894222-62.170968L830.146409 472.522893 830.146409 472.522893 830.146409 472.522893zM830.146409 472.522893" fill="#272636" p-id="10077"></path></svg>