<?xml version="1.0" standalone="no"?><!DOCTYPE svg PUBLIC "-//W3C//DTD SVG 1.1//EN" "http://www.w3.org/Graphics/SVG/1.1/DTD/svg11.dtd"><svg t="1764167023621" class="icon" viewBox="0 0 1024 1024" version="1.1" xmlns="http://www.w3.org/2000/svg" p-id="5506" xmlns:xlink="http://www.w3.org/1999/xlink" width="200" height="200"><path d="M615.768158 514.432394l159.369388-65.020746c13.622225-4.174058 26.982484-4.174058 40.604709 0l159.3479 65.020746c35.959931 16.133413 43.48531 36.664988 42.365815 71.975121 0.213871 8.698085 0.095167 16.696231-0.214894 21.561018-9.81144 143.952288-99.403765 263.958236-221.313059 308.901755l-0.499372-0.186241-0.475837 0.186241c-121.885758-44.943518-211.478083-164.949466-221.289523-308.901755-2.763945-41.905328-2.001583-73.707575 42.104873-93.536139z m178.801934-7.530495V854.622697l0.429788 0.188288 0.379646-0.14224 0.333597 0.14224c88.354127-35.825878 153.798521-161.959372 160.323108-227.433442 3.238758-54.251493 7.00247-55.748587-28.386457-68.842787l-122.409689-49.691649c-4.883207-1.239221-8.169037-1.812272-10.669993-1.941208zM188.001439 551.28567h76.874701c19.862334 20.016853 57.228285 33.439533 100.023888 33.439533 42.819139 0 80.161554-13.422681 100.047424-33.439533h42.747507c-0.261966 11.036335 0.310061 22.728609 1.119495 35.16994 8.168014 119.724539 59.037487 226.638334 136.292857 303.149762 7.311508 9.167782-1.143031 18.285422-5.167686 18.285422H79.357237c-40.104313 0-72.921677-32.221801-72.921677-71.601615V729.611768c0-98.072447 81.685254-178.326098 181.565879-178.326098zM359.422281 503.125906c111.072503 0 201.64106-88.941504 201.64106-197.99298 0-109.063757-90.568557-198.004237-201.64106-198.004238-111.073526 0-201.665619 88.941504-201.66562 198.004238 0 109.051477 90.592093 197.992981 201.66562 197.99298z" fill="#2c2c2c" p-id="5507"></path></svg>