<?xml version="1.0" standalone="no"?><!DOCTYPE svg PUBLIC "-//W3C//DTD SVG 1.1//EN" "http://www.w3.org/Graphics/SVG/1.1/DTD/svg11.dtd"><svg t="1764688421857" class="icon" viewBox="0 0 1024 1024" version="1.1" xmlns="http://www.w3.org/2000/svg" p-id="9453" xmlns:xlink="http://www.w3.org/1999/xlink" width="200" height="200"><path d="M768 128a128 128 0 0 1 128 128v512a128 128 0 0 1-128 128H256a128 128 0 0 1-128-128V256a128 128 0 0 1 128-128z m38.4 128a38.4 38.4 0 0 0-38.4-38.4H256a38.4 38.4 0 0 0-38.4 38.4v83.2h588.8zM217.6 416V768a38.4 38.4 0 0 0 38.4 38.4h58.688V416z m173.888 0v390.4H768a38.4 38.4 0 0 0 38.4-38.4V416z" fill="#2c2c2c" fill-opacity="0.9" p-id="9454"></path></svg>