<?xml version="1.0" standalone="no"?><!DOCTYPE svg PUBLIC "-//W3C//DTD SVG 1.1//EN" "http://www.w3.org/Graphics/SVG/1.1/DTD/svg11.dtd"><svg t="1763906891761" class="icon" viewBox="0 0 1024 1024" version="1.1" xmlns="http://www.w3.org/2000/svg" p-id="1635" xmlns:xlink="http://www.w3.org/1999/xlink" width="200" height="200"><path d="M602.56 269.92a158.72 158.72 0 0 1 74.08 118.24 128 128 0 1 0-74.08-118.24zM518.4 532.96a128 128 0 1 0-128-128 128 128 0 0 0 128 128z m54.56 8.8H464a164.64 164.64 0 0 0-164.48 164.48v135.36l9.12 2.88a749.44 749.44 0 0 0 224 36.16c120.96 0 191.04-34.56 195.36-36.64l8.48-4.48h0.96v-133.28a164.64 164.64 0 0 0-164.48-164.48z m212.48-132.64h-108.16a157.76 157.76 0 0 1-48 110.24A195.52 195.52 0 0 1 768 706.4v41.12a443.52 443.52 0 0 0 172.32-36.16l8.64-4.48h0.96v-133.28a164.8 164.8 0 0 0-164.48-164.48zM292.96 400a127.04 127.04 0 0 0 68.32-19.84 158.88 158.88 0 0 1 59.84-101.28v-7.36a128 128 0 1 0-128 128z m115.52 119.04a158.4 158.4 0 0 1-48.96-109.6h-120.96A164.64 164.64 0 0 0 74.08 573.6v135.36l9.12 2.88a769.6 769.6 0 0 0 185.6 34.88v-40.32a195.36 195.36 0 0 1 139.68-187.04z" p-id="1636"></path></svg>